<?xml version="1.0" encoding="utf-8"?>
<!-- Generator: Adobe Illustrator 25.0.0, SVG Export Plug-In . SVG Version: 6.00 Build 0)  -->
<svg version="1.1" id="Layer_1" xmlns="http://www.w3.org/2000/svg" xmlns:xlink="http://www.w3.org/1999/xlink" x="0px" y="0px"
	 viewBox="0 0 1920 1080" style="enable-background:new 0 0 1920 1080;" xml:space="preserve">
<style type="text/css">
	.st0{fill:url(#SVGID_1_);}
	.st1{fill:url(#SVGID_2_);stroke:#000000;stroke-miterlimit:10;}
</style>
<linearGradient id="SVGID_1_" gradientUnits="userSpaceOnUse" x1="990.7513" y1="598.6862" x2="990.7513" y2="405.2793">
	<stop  offset="0" style="stop-color:#FFF33B;stop-opacity:0.1"/>
	<stop  offset="4.010541e-02" style="stop-color:#FEE72E;stop-opacity:0.1"/>
	<stop  offset="0.1171" style="stop-color:#FED51B;stop-opacity:0.1"/>
	<stop  offset="0.1964" style="stop-color:#FDCA10;stop-opacity:0.1"/>
	<stop  offset="0.2809" style="stop-color:#FDC70C;stop-opacity:0.1"/>
	<stop  offset="0.6685" style="stop-color:#F3903F"/>
	<stop  offset="0.8876" style="stop-color:#ED683C"/>
	<stop  offset="1" style="stop-color:#E93E3A"/>
</linearGradient>
<path class="st0" d="M183.5,578.5c-39.7,1-154.7,1.8-155-4c-0.3-6.7,150.4-19.6,285-30c20.6-22.4,39.4-30.1,53-33
	c0,0,51.7-10.9,55.3-18.5c0.1-0.2,0.2-0.3,0.2-0.3c0.1-0.3,0.2-0.4,0.3-0.6c27.1-55.2,279.8,0.5,343.2,14.5
	c143.4,31.6,168.6,50.6,235,38c74.7-14.2,70.2-43.5,148-61c136.8-30.8,290.7,28.3,300.9,93.3c1.5,9.3,0,17.9,5,20.5
	c22.7,11.8,85.4-143.9,191-182c127.3-46,318.7,78.7,307.1,136.3c-10.4,51.8-296,49.6-867,45C564.7,592.3,516.7,570.4,183.5,578.5z"
	/>
<linearGradient id="SVGID_2_" gradientUnits="userSpaceOnUse" x1="372.5" y1="534.5" x2="372.5" y2="534.5">
	<stop  offset="0" style="stop-color:#FFF33B;stop-opacity:0.1"/>
	<stop  offset="4.010541e-02" style="stop-color:#FEE72E;stop-opacity:0.1"/>
	<stop  offset="0.1171" style="stop-color:#FED51B;stop-opacity:0.1"/>
	<stop  offset="0.1964" style="stop-color:#FDCA10;stop-opacity:0.1"/>
	<stop  offset="0.2809" style="stop-color:#FDC70C;stop-opacity:0.1"/>
	<stop  offset="0.6685" style="stop-color:#F3903F"/>
	<stop  offset="0.8876" style="stop-color:#ED683C"/>
	<stop  offset="1" style="stop-color:#E93E3A"/>
</linearGradient>
<path class="st1" d="M372.5,534.5"/>
</svg>
